<svg width="131" height="131" viewBox="0 0 131 131" fill="none" xmlns="http://www.w3.org/2000/svg">
<path d="M65.2422 0C101.274 0 130.484 29.2099 130.484 65.2422C130.484 101.274 101.274 130.484 65.2422 130.484C29.2099 130.484 0 101.274 0 65.2422C0 29.2099 29.2099 0 65.2422 0ZM65.2422 5.3916C32.1878 5.3916 5.3916 32.1878 5.3916 65.2422C5.3916 98.2966 32.1878 125.093 65.2422 125.093C98.2966 125.093 125.093 98.2966 125.093 65.2422C125.093 32.1878 98.2966 5.3916 65.2422 5.3916ZM27.4121 28.0518C45.1211 28.0305 62.83 28.0338 80.5381 28.0625C85.9119 28.0709 90.8893 29.4649 95.2344 32.7373C100.165 36.4555 103.267 41.3357 104.386 47.4238C106.661 59.7906 98.8949 71.6624 86.6592 74.5781C86.54 74.6059 86.4222 74.6437 86.2227 74.6992L103.816 82.7646L82.5264 104.562C79.5981 98.5159 76.7012 92.5315 73.7646 86.4668C73.6385 87.1208 73.5374 87.6878 73.4209 88.2432C71.581 97.0069 64.5376 104.16 55.8223 106.137C53.7657 106.622 51.6523 106.826 49.541 106.741C44.0286 106.48 39.1524 104.575 34.9932 100.927C31.0986 97.514 28.6024 93.2611 27.4932 88.2031C27.1311 86.5325 26.9527 84.8267 26.9609 83.1172V28.0518H27.4121ZM81.8076 34.9102C78.1279 34.8019 74.4394 34.7976 70.7598 34.917C67.6515 35.0171 65.4208 36.6336 64.1328 39.4854C63.8944 40.0115 63.7556 40.5819 63.5615 41.1621V34.8633C63.4423 34.855 63.3508 34.8438 63.2607 34.8438C61.0674 34.8437 58.874 34.834 56.6807 34.8438C55.2254 34.8407 53.7729 34.9797 52.3447 35.2598C47.0042 36.3386 42.5551 38.9533 39.0557 43.1309C35.7544 47.0685 33.9407 51.6398 33.7217 56.7881C33.6135 59.3148 33.6638 61.8499 33.6514 64.3809C33.6292 69.0627 33.6127 73.7449 33.6016 78.4268C33.596 80.8329 33.6909 83.2336 34.1318 85.6064C34.7807 89.0885 36.2949 92.1095 38.8652 94.585C43.1231 98.6739 49.9765 100.041 55.0469 98.6738C59.2229 97.5464 62.3236 95.0645 64.0762 91.0381C65.1091 88.6639 65.2559 86.1962 64.79 83.665C64.6362 82.8293 64.4465 82.0102 64.0195 81.2744C61.8719 77.5701 56.6873 76.2258 53.0283 78.4473C51.0124 79.6677 49.9255 81.4604 50.0752 83.8623C50.1958 85.8031 51.1843 87.3027 52.6689 88.498C53.4204 89.0917 54.27 89.5496 55.1787 89.8506C55.1449 89.8776 55.1095 89.9028 55.0723 89.9248C55.0392 89.9348 55.005 89.9415 54.9707 89.9463C52.8911 90.2239 51.0467 89.6757 49.498 88.2637C47.7694 86.6892 47.1347 84.6718 47.1943 82.3672C47.265 79.5974 48.3267 77.3299 50.4658 75.5791C51.9251 74.3695 53.6839 73.5767 55.5557 73.2852C55.0345 72.5911 54.4631 71.8972 53.9766 71.1504C53.4907 70.3815 53.1607 69.5236 53.0059 68.627C53.032 68.6244 53.0588 68.6244 53.085 68.627L53.6709 68.9238C57.2646 70.7523 61.0951 71.6634 65.1006 71.9258C69.727 72.2375 74.3728 71.7644 78.8418 70.5264C79.0265 70.4727 79.1971 70.3781 79.3398 70.249C80.1551 69.4937 80.9851 68.7586 81.7588 67.9658C84.4865 65.1556 87.2136 62.3442 89.9385 59.5312C90.0281 59.4288 90.0878 59.3032 90.1104 59.1689C90.4445 57.2919 90.458 55.3995 90.3457 53.5029C90.3027 52.8934 90.2528 52.2906 90.207 51.6436C92.1757 51.9407 93.5248 53.1043 94.7227 54.5371C95.6405 53.5777 96.545 52.639 97.4365 51.6865C97.5117 51.5756 97.5414 51.44 97.5205 51.3076C97.4068 50.3456 97.3074 49.3793 97.1494 48.4229C95.8849 40.7892 89.5206 35.1379 81.8076 34.9102ZM46.4639 54.2314C47.141 54.2367 47.7888 54.5088 48.2666 54.9893C48.7445 55.4699 49.0135 56.1205 49.0156 56.7988C49.0104 57.4769 48.7387 58.126 48.2588 58.6045C47.7788 59.0829 47.1294 59.3523 46.4521 59.3545C45.7748 59.3497 45.1264 59.0774 44.6484 58.5967C44.1706 58.116 43.9022 57.4654 43.9004 56.7871C43.9056 56.1089 44.1773 55.46 44.6572 54.9814C45.1372 54.503 45.7866 54.2336 46.4639 54.2314Z" fill="#E8C688"/>
</svg>
